<?xml version="1.0" encoding="UTF-8" standalone="no"?>
<!-- Created with Inkscape (http://www.inkscape.org/) -->

<svg
   version="1.1"
   id="svg1"
   width="495"
   height="280"
   viewBox="0 0 495 280"
   sodipodi:docname="Font Cover landscape.svg"
   inkscape:version="1.4 (86a8ad7, 2024-10-11)"
   inkscape:export-filename="Font Cover landscape.png"
   inkscape:export-xdpi="96"
   inkscape:export-ydpi="96"
   xmlns:inkscape="http://www.inkscape.org/namespaces/inkscape"
   xmlns:sodipodi="http://sodipodi.sourceforge.net/DTD/sodipodi-0.dtd"
   xmlns="http://www.w3.org/2000/svg"
   xmlns:svg="http://www.w3.org/2000/svg">
  <defs
     id="defs1">
    <rect
       x="198.13704"
       y="58.2756"
       width="26.763609"
       height="44.893795"
       id="rect14" />
    <rect
       x="142.88313"
       y="45.325466"
       width="116.98287"
       height="137.27142"
       id="rect11" />
  </defs>
  <sodipodi:namedview
     id="namedview1"
     pagecolor="#ffffff"
     bordercolor="#000000"
     borderopacity="0.25"
     inkscape:showpageshadow="2"
     inkscape:pageopacity="0.0"
     inkscape:pagecheckerboard="0"
     inkscape:deskcolor="#d1d1d1"
     inkscape:zoom="2.0267851"
     inkscape:cx="251.87673"
     inkscape:cy="144.81062"
     inkscape:window-width="1920"
     inkscape:window-height="1009"
     inkscape:window-x="-8"
     inkscape:window-y="-8"
     inkscape:window-maximized="1"
     inkscape:current-layer="g39"
     showguides="false" />
  <g
     inkscape:groupmode="layer"
     inkscape:label="Image"
     id="g1"
     transform="translate(-19.645168,-21.043139)">
    <rect
       style="display:inline;opacity:1;fill:#ffffff;fill-opacity:0.578313"
       id="rect3"
       width="495.00003"
       height="279.99997"
       x="19.855019"
       y="20.665426"
       sodipodi:insensitive="true" />
    <rect
       style="opacity:0.861111;fill:#88009b;fill-opacity:1;stroke-width:0.999998"
       id="rect1"
       width="495.00003"
       height="280"
       x="19.645168"
       y="21.043139"
       inkscape:label="Background"
       sodipodi:insensitive="true" />
    <g
       id="g39"
       inkscape:label="Texts"
       transform="translate(7.2499965,-4)"
       style="display:inline">
      <text
         xml:space="preserve"
         style="font-size:143.593px;text-align:start;writing-mode:lr-tb;direction:ltr;text-anchor:start;display:inline;opacity:1;fill:#3a0043;fill-opacity:0.576471;stroke-width:11.9661"
         x="25.764984"
         y="147.12914"
         id="text1"><tspan
           sodipodi:role="line"
           id="tspan1"
           x="25.764984"
           y="147.12914"
           style="font-style:normal;font-variant:normal;font-weight:normal;font-stretch:normal;font-family:TallThin;-inkscape-font-specification:TallThin;fill:#3a0043;fill-opacity:0.576471;stroke-width:11.9661">ABЧ<tspan
   style="letter-spacing:-5px"
   id="tspan66">Þ</tspan>ꞰŊ<tspan
   style="font-style:normal;font-variant:normal;font-weight:normal;font-stretch:normal;font-family:TallThin;-inkscape-font-specification:TallThin;letter-spacing:-5.21208px;stroke-width:11.9661"
   id="tspan9">ȢΦ</tspan></tspan></text>
      <text
         xml:space="preserve"
         style="font-size:98.4185px;text-align:end;writing-mode:lr-tb;direction:ltr;text-anchor:end;display:inline;opacity:0.81;fill:#32003a;fill-opacity:1;stroke:#32003a;stroke-width:2;stroke-dasharray:none;stroke-opacity:1;paint-order:normal"
         x="482.94357"
         y="292.28152"
         id="text2"><tspan
           sodipodi:role="line"
           id="tspan2"
           x="482.94357"
           y="292.28152"
           style="font-style:normal;font-variant:normal;font-weight:normal;font-stretch:normal;font-family:TallThin;-inkscape-font-specification:TallThin;text-align:end;text-anchor:end;fill:#32003a;fill-opacity:1;stroke:none;stroke-width:2;stroke-dasharray:none;stroke-opacity:1;paint-order:normal"><tspan
   style="letter-spacing:-8px;stroke:none"
   id="tspan53">T</tspan>all<tspan
   style="letter-spacing:-6px;stroke:none"
   id="tspan54">T</tspan>hin</tspan></text>
      <text
         xml:space="preserve"
         style="font-style:normal;font-variant:normal;font-weight:normal;font-stretch:normal;font-size:56.7279px;line-height:0.8;font-family:TallThin;-inkscape-font-specification:TallThin;text-align:end;letter-spacing:0px;writing-mode:lr-tb;direction:ltr;text-anchor:end;opacity:0.861111;fill:#3a0043;fill-opacity:0.576471;stroke:none;stroke-width:1.70183;stroke-dasharray:none;stroke-opacity:1;paint-order:normal"
         x="38.514492"
         y="196.90248"
         id="text56"><tspan
           sodipodi:role="line"
           x="38.514492"
           y="196.90248"
           style="line-height:0.8;text-align:start;letter-spacing:0px;text-anchor:start;fill:#3a0043;fill-opacity:0.576471;stroke-width:1.70183"
           id="tspan60">abcçdefφþðgȝhƕijkʞlmnиŋ</tspan><tspan
           sodipodi:role="line"
           x="38.514492"
           y="242.28481"
           style="line-height:0.8;text-align:start;letter-spacing:0px;text-anchor:start;fill:#3a0043;fill-opacity:0.576471;stroke-width:1.70183"
           id="tspan63">oꝏpqrsʃtч</tspan><tspan
           sodipodi:role="line"
           x="38.514492"
           y="287.66711"
           style="line-height:0.8;text-align:start;letter-spacing:0px;text-anchor:start;fill:#3a0043;fill-opacity:0.576471;stroke-width:1.70183"
           id="tspan65">uȣvwxyz</tspan></text>
    </g>
    <g
       id="g38"
       inkscape:label="Vectors"
       transform="translate(-3.4533689,-4)"
       style="display:none"
       sodipodi:insensitive="true">
      <g
         id="g48"
         style="display:none">
        <path
           style="font-weight:bold;font-size:98.4185px;font-family:'NewEng Rune';-inkscape-font-specification:'NewEng Rune';text-align:end;text-anchor:end;opacity:0.81;fill:#32003a;stroke:#32003a;stroke-width:2"
           d="m 475.70172,212.18817 -23.62044,39.36741 0.88577,2.26362 23.62044,39.3674 6.3972,-2.26362 -0.68893,-2.26363 -22.53784,-37.49745 23.22677,-38.97373 -0.68893,-2.26362 z"
           id="path48" />
        <path
           style="font-weight:bold;font-size:98.4185px;font-family:'NewEng Rune';-inkscape-font-specification:'NewEng Rune';text-align:end;text-anchor:end;opacity:0.81;fill:#32003a;stroke:#32003a;stroke-width:2"
           d="m 433.34935,212.18817 v 78.73481 l 0.88577,2.26362 6.29878,-2.26362 v -78.73481 l -0.59051,-2.26362 z"
           id="path47" />
        <path
           style="font-weight:bold;font-size:98.4185px;font-family:'NewEng Rune';-inkscape-font-specification:'NewEng Rune';text-align:end;text-anchor:end;opacity:0.81;fill:#32003a;stroke:#32003a;stroke-width:2"
           d="m 388.31993,220.94742 24.30937,24.30937 v 45.66619 l 0.88576,2.26362 6.39721,-2.26362 V 243.6821 212.18817 l -0.68893,-2.26362 -6.59404,2.26362 v 22.63626 l -24.89988,-24.89988 -6.59404,2.26362 v 78.73481 l 0.88576,2.26362 6.29879,-2.26362 z"
           id="path46" />
        <path
           style="font-weight:bold;font-size:98.4185px;font-family:'NewEng Rune';-inkscape-font-specification:'NewEng Rune';text-align:end;text-anchor:end;opacity:0.81;fill:#32003a;stroke:#32003a;stroke-width:2"
           d="m 367.69829,290.92298 v -78.73481 l -0.68893,-2.26362 -6.59404,2.26362 v 62.98785 l -16.43589,10.92445 v -73.9123 l -0.59051,-2.26362 -6.59404,2.26362 v 78.73481 l 0.88576,2.26362 6.29879,-2.26362 16.43589,-10.92446 v 10.92446 l 0.88576,2.26362 z"
           id="path45" />
        <path
           id="path44"
           style="font-weight:bold;font-size:98.4185px;font-family:'NewEng Rune';-inkscape-font-specification:'NewEng Rune';text-align:end;text-anchor:end;opacity:0.81;fill:#32003a;stroke:#32003a;stroke-width:2"
           d="m 300.81441,209.924 -6.59375,2.26367 v 78.73438 l 0.88476,2.26367 6.29883,-2.26367 V 264.6447 l 17.32226,28.54102 6.39649,-2.26367 -0.6875,-2.26172 -22.53906,-37.40039 23.22656,-19.38868 -0.6875,-2.26367 z m 0.58984,10.03906 15.45312,12.69531 -15.45312,12.79493 z" />
      </g>
      <g
         id="text25"
         style="font-size:137.75px;display:inline;fill:#3a0043;fill-opacity:0.576471;stroke-width:11.4792"
         aria-label="abЧÞꞰŊȢΦ"
         transform="translate(0,-4.7483823)">
        <path
           style="font-family:'NewEng Rune';-inkscape-font-specification:'NewEng Rune';letter-spacing:-10px"
           d="m 65.556874,65.586385 29.06525,77.691005 8.953746,-3.16825 C 92.280374,109.66639 80.847124,79.223635 69.551624,48.780885 l -9.22925,3.16825 -33.06,88.160005 1.23975,3.16825 8.816,-3.16825 z"
           id="path31" />
        <path
           style="font-family:'NewEng Rune';-inkscape-font-specification:'NewEng Rune';letter-spacing:-5px"
           d="M 107.2131,40.929135 V 151.12914 l 1.23975,3.16825 8.816,-3.16825 33.19775,-33.06 -0.96425,-3.16825 -32.2335,-32.095755 v -29.61625 l 21.90225,21.90225 -9.918,9.918 1.23975,3.16825 8.95375,-3.16825 11.02,-11.02 -0.96425,-3.16825 -33.06,-33.06 z M 117.26885,141.07339 V 97.268885 l 21.90225,21.902255 z"
           id="path32" />
        <path
           style="font-family:'NewEng Rune';-inkscape-font-specification:'NewEng Rune'"
           d="m 202.35737,40.929135 -0.96425,-3.16825 -9.22925,3.16825 v 44.08 L 169.15962,108.01339 V 62.969135 l -0.8265,-3.16825 -9.22925,3.16825 v 55.100005 l 1.23975,3.16825 8.816,-3.16825 23.00425,-23.004255 v 56.064255 l 1.23975,3.16825 8.95375,-3.16825 z"
           id="path33" />
        <path
           style="font-family:'NewEng Rune';-inkscape-font-specification:'NewEng Rune';letter-spacing:-20px"
           d="m 216.13231,40.929135 v 22.04 66.120005 22.04 l 1.23975,3.16825 8.816,-3.16825 v -22.04 l 33.19775,-33.060005 -0.96425,-3.16825 -32.2335,-32.09575 v -19.836 l -0.8265,-3.16825 z m 10.05575,78.104255 V 75.228885 l 21.90225,21.90225 z"
           id="path34" />
        <path
           style="font-family:'NewEng Rune';-inkscape-font-specification:'NewEng Rune'"
           d="m 286.22075,40.929135 v 42.7025 L 262.39,59.800885 l -9.22925,3.16825 1.23975,3.16825 30.71825,30.99375 -31.958,31.958005 1.23975,3.16825 8.816,-3.16825 23.00425,-23.00425 v 45.04425 l 1.23975,3.16825 8.95375,-3.16825 v -55.100005 -55.1 L 295.45,37.760885 Z"
           id="path35" />
        <path
           style="font-family:'NewEng Rune';-inkscape-font-specification:'NewEng Rune';letter-spacing:-5px"
           d="m 354.26919,87.213135 v 51.518505 l -34.02425,-33.8865 V 53.188885 Z m 10.1935,-2.204 v -44.08 l -0.96425,-3.16825 -9.22925,3.16825 v 31.6825 l -34.85075,-34.85075 -9.22925,3.16825 v 66.120005 44.08 l 1.23975,3.16825 8.816,-3.16825 v -31.82025 l 35.264,34.9885 8.95375,-3.16825 z"
           id="path36" />
        <path
           style="font-family:'NewEng Rune';-inkscape-font-specification:'NewEng Rune';letter-spacing:-10px"
           d="m 383.98212,117.10489 15.979,-28.101005 17.081,29.478505 -16.11675,24.244 z m 21.90225,-38.156755 21.62675,-38.019 -0.96425,-3.16825 -9.22925,3.16825 -16.53,29.06525 -18.32075,-32.2335 -9.22925,3.16825 1.23975,3.16825 20.52475,35.95275 -21.7645,38.019005 1.23975,3.16825 22.04,33.06 8.95375,-3.16825 22.04,-33.06 -0.96425,-3.16825 z"
           id="path37" />
        <path
           style="font-family:'NewEng Rune';-inkscape-font-specification:'NewEng Rune';letter-spacing:0px"
           d="m 464.34606,40.929135 v 22.04 l -33.06,33.06 1.23975,3.16825 31.82025,32.095755 v 19.836 l 1.23975,3.16825 8.95375,-3.16825 v -22.04 l 33.06,-33.060005 -0.96425,-3.16825 -32.09575,-32.09575 v -19.836 l -0.96425,-3.16825 z m 10.1935,78.104255 V 75.228885 l 21.7645,21.90225 z m -10.1935,-2.34175 -21.90225,-21.764505 21.90225,-21.90225 z"
           id="path38" />
      </g>
    </g>
  </g>
</svg>
